solid OpenSCAD_Model
  facet normal -0.994522 -0.104529 0
    outer loop
      vertex 2.75 0 -3.3
      vertex 2.68991 0.571757 5.5
      vertex 2.68991 0.571757 -3.3
    endloop
  endfacet
  facet normal -0.994522 -0.104529 0
    outer loop
      vertex 2.68991 0.571757 5.5
      vertex 2.75 0 -3.3
      vertex 2.75 0 5.5
    endloop
  endfacet
  facet normal 0.994522 -0.104529 0
    outer loop
      vertex -2.75 0 5.5
      vertex -2.68991 0.571757 -3.3
      vertex -2.68991 0.571757 5.5
    endloop
  endfacet
  facet normal 0.994522 -0.104529 0
    outer loop
      vertex -2.68991 0.571757 -3.3
      vertex -2.75 0 5.5
      vertex -2.75 0 -3.3
    endloop
  endfacet
  facet normal 0 -1 0
    outer loop
      vertex -0.287453 2.73493 -3.3
      vertex 0.287453 2.73493 5.5
      vertex -0.287453 2.73493 5.5
    endloop
  endfacet
  facet normal 0 -1 -0
    outer loop
      vertex 0.287453 2.73493 5.5
      vertex -0.287453 2.73493 -3.3
      vertex 0.287453 2.73493 -3.3
    endloop
  endfacet
  facet normal 0 1 -0
    outer loop
      vertex 0.287453 -2.73493 -3.3
      vertex -0.287453 -2.73493 5.5
      vertex 0.287453 -2.73493 5.5
    endloop
  endfacet
  facet normal 0 1 0
    outer loop
      vertex -0.287453 -2.73493 5.5
      vertex 0.287453 -2.73493 -3.3
      vertex -0.287453 -2.73493 -3.3
    endloop
  endfacet
  facet normal -0.587786 -0.809017 0
    outer loop
      vertex 1.375 2.38157 -3.3
      vertex 1.84011 2.04365 5.5
      vertex 1.375 2.38157 5.5
    endloop
  endfacet
  facet normal -0.587786 -0.809017 -0
    outer loop
      vertex 1.84011 2.04365 5.5
      vertex 1.375 2.38157 -3.3
      vertex 1.84011 2.04365 -3.3
    endloop
  endfacet
  facet normal 0.587785 -0.809017 0
    outer loop
      vertex -1.84011 2.04365 -3.3
      vertex -1.375 2.38157 5.5
      vertex -1.84011 2.04365 5.5
    endloop
  endfacet
  facet normal 0.587785 -0.809017 0
    outer loop
      vertex -1.375 2.38157 5.5
      vertex -1.84011 2.04365 -3.3
      vertex -1.375 2.38157 -3.3
    endloop
  endfacet
  facet normal 0.207912 -0.978148 0
    outer loop
      vertex -0.849796 2.6154 -3.3
      vertex -0.287453 2.73493 5.5
      vertex -0.849796 2.6154 5.5
    endloop
  endfacet
  facet normal 0.207912 -0.978148 0
    outer loop
      vertex -0.287453 2.73493 5.5
      vertex -0.849796 2.6154 -3.3
      vertex -0.287453 2.73493 -3.3
    endloop
  endfacet
  facet normal -0.951056 0.309018 0
    outer loop
      vertex 2.51225 -1.11853 -3.3
      vertex 2.68991 -0.571757 5.5
      vertex 2.68991 -0.571757 -3.3
    endloop
  endfacet
  facet normal -0.951056 0.309018 0
    outer loop
      vertex 2.68991 -0.571757 5.5
      vertex 2.51225 -1.11853 -3.3
      vertex 2.51225 -1.11853 5.5
    endloop
  endfacet
  facet normal -0.866025 -0.5 0
    outer loop
      vertex 2.51225 1.11853 -3.3
      vertex 2.2248 1.61641 5.5
      vertex 2.2248 1.61641 -3.3
    endloop
  endfacet
  facet normal -0.866025 -0.5 0
    outer loop
      vertex 2.2248 1.61641 5.5
      vertex 2.51225 1.11853 -3.3
      vertex 2.51225 1.11853 5.5
    endloop
  endfacet
  facet normal -0.951056 -0.309018 0
    outer loop
      vertex 2.68991 0.571757 -3.3
      vertex 2.51225 1.11853 5.5
      vertex 2.51225 1.11853 -3.3
    endloop
  endfacet
  facet normal -0.951056 -0.309018 0
    outer loop
      vertex 2.51225 1.11853 5.5
      vertex 2.68991 0.571757 -3.3
      vertex 2.68991 0.571757 5.5
    endloop
  endfacet
  facet normal -0.743145 -0.669131 0
    outer loop
      vertex 2.2248 1.61641 -3.3
      vertex 1.84011 2.04365 5.5
      vertex 1.84011 2.04365 -3.3
    endloop
  endfacet
  facet normal -0.743145 -0.669131 0
    outer loop
      vertex 1.84011 2.04365 5.5
      vertex 2.2248 1.61641 -3.3
      vertex 2.2248 1.61641 5.5
    endloop
  endfacet
  facet normal -0.207912 -0.978148 0
    outer loop
      vertex 0.287453 2.73493 -3.3
      vertex 0.849796 2.6154 5.5
      vertex 0.287453 2.73493 5.5
    endloop
  endfacet
  facet normal -0.207912 -0.978148 -0
    outer loop
      vertex 0.849796 2.6154 5.5
      vertex 0.287453 2.73493 -3.3
      vertex 0.849796 2.6154 -3.3
    endloop
  endfacet
  facet normal -0.406736 -0.913546 0
    outer loop
      vertex 0.849796 2.6154 -3.3
      vertex 1.375 2.38157 5.5
      vertex 0.849796 2.6154 5.5
    endloop
  endfacet
  facet normal -0.406736 -0.913546 -0
    outer loop
      vertex 1.375 2.38157 5.5
      vertex 0.849796 2.6154 -3.3
      vertex 1.375 2.38157 -3.3
    endloop
  endfacet
  facet normal 0.866025 -0.5 0
    outer loop
      vertex -2.51225 1.11853 5.5
      vertex -2.2248 1.61641 -3.3
      vertex -2.2248 1.61641 5.5
    endloop
  endfacet
  facet normal 0.866025 -0.5 0
    outer loop
      vertex -2.2248 1.61641 -3.3
      vertex -2.51225 1.11853 5.5
      vertex -2.51225 1.11853 -3.3
    endloop
  endfacet
  facet normal 0.743145 -0.669131 0
    outer loop
      vertex -2.2248 1.61641 5.5
      vertex -1.84011 2.04365 -3.3
      vertex -1.84011 2.04365 5.5
    endloop
  endfacet
  facet normal 0.743145 -0.669131 0
    outer loop
      vertex -1.84011 2.04365 -3.3
      vertex -2.2248 1.61641 5.5
      vertex -2.2248 1.61641 -3.3
    endloop
  endfacet
  facet normal 0.951056 -0.309018 0
    outer loop
      vertex -2.68991 0.571757 5.5
      vertex -2.51225 1.11853 -3.3
      vertex -2.51225 1.11853 5.5
    endloop
  endfacet
  facet normal 0.951056 -0.309018 0
    outer loop
      vertex -2.51225 1.11853 -3.3
      vertex -2.68991 0.571757 5.5
      vertex -2.68991 0.571757 -3.3
    endloop
  endfacet
  facet normal 0 0 1
    outer loop
      vertex 2.2248 1.61641 5.5
      vertex 5.5 4.02812 5.5
      vertex 4.56347 5.06825 5.5
    endloop
  endfacet
  facet normal 0 0 1
    outer loop
      vertex 5.5 4.02812 5.5
      vertex 2.75 0 5.5
      vertex 5.5 -4.02812 5.5
    endloop
  endfacet
  facet normal 0 0 1
    outer loop
      vertex 1.84011 2.04365 5.5
      vertex 4.56347 5.06825 5.5
      vertex 3.96921 5.5 5.5
    endloop
  endfacet
  facet normal -0 0 1
    outer loop
      vertex 2.68991 -0.571757 5.5
      vertex 5.5 -4.02812 5.5
      vertex 2.75 0 5.5
    endloop
  endfacet
  facet normal -0 0 1
    outer loop
      vertex 2.51225 -1.11853 5.5
      vertex 5.5 -4.02812 5.5
      vertex 2.68991 -0.571757 5.5
    endloop
  endfacet
  facet normal 0 0 1
    outer loop
      vertex 5.5 4.02812 5.5
      vertex 2.68991 0.571757 5.5
      vertex 2.75 0 5.5
    endloop
  endfacet
  facet normal 0 0 1
    outer loop
      vertex 5.5 4.02812 5.5
      vertex 2.51225 1.11853 5.5
      vertex 2.68991 0.571757 5.5
    endloop
  endfacet
  facet normal 0 0 1
    outer loop
      vertex 5.5 4.02812 5.5
      vertex 2.2248 1.61641 5.5
      vertex 2.51225 1.11853 5.5
    endloop
  endfacet
  facet normal 0 0 1
    outer loop
      vertex 4.56347 5.06825 5.5
      vertex 1.84011 2.04365 5.5
      vertex 2.2248 1.61641 5.5
    endloop
  endfacet
  facet normal 0 0 1
    outer loop
      vertex 3.96921 5.5 5.5
      vertex 1.375 2.38157 5.5
      vertex 1.84011 2.04365 5.5
    endloop
  endfacet
  facet normal 0 0 1
    outer loop
      vertex 3.96921 5.5 5.5
      vertex 0.849796 2.6154 5.5
      vertex 1.375 2.38157 5.5
    endloop
  endfacet
  facet normal 0 0 1
    outer loop
      vertex 3.96921 5.5 5.5
      vertex 0.287453 2.73493 5.5
      vertex 0.849796 2.6154 5.5
    endloop
  endfacet
  facet normal 0 0 1
    outer loop
      vertex 3.96921 5.5 5.5
      vertex -0.287453 2.73493 5.5
      vertex 0.287453 2.73493 5.5
    endloop
  endfacet
  facet normal -0 0 1
    outer loop
      vertex -3.96921 5.5 5.5
      vertex -0.287453 2.73493 5.5
      vertex 3.96921 5.5 5.5
    endloop
  endfacet
  facet normal 0 0 1
    outer loop
      vertex -0.287453 2.73493 5.5
      vertex -3.96921 5.5 5.5
      vertex -0.849796 2.6154 5.5
    endloop
  endfacet
  facet normal 0 0 1
    outer loop
      vertex -2.2248 1.61641 5.5
      vertex -5.5 4.02812 5.5
      vertex -2.51225 1.11853 5.5
    endloop
  endfacet
  facet normal -0 0 1
    outer loop
      vertex -5.5 4.02812 5.5
      vertex -2.2248 1.61641 5.5
      vertex -4.56347 5.06825 5.5
    endloop
  endfacet
  facet normal 0 0 1
    outer loop
      vertex -1.84011 2.04365 5.5
      vertex -4.56347 5.06825 5.5
      vertex -2.2248 1.61641 5.5
    endloop
  endfacet
  facet normal -0 0 1
    outer loop
      vertex -4.56347 5.06825 5.5
      vertex -1.84011 2.04365 5.5
      vertex -3.96921 5.5 5.5
    endloop
  endfacet
  facet normal 0 0 1
    outer loop
      vertex -1.375 2.38157 5.5
      vertex -3.96921 5.5 5.5
      vertex -1.84011 2.04365 5.5
    endloop
  endfacet
  facet normal 0 0 1
    outer loop
      vertex -0.849796 2.6154 5.5
      vertex -3.96921 5.5 5.5
      vertex -1.375 2.38157 5.5
    endloop
  endfacet
  facet normal -0 0 1
    outer loop
      vertex 2.2248 -1.61641 5.5
      vertex 5.5 -4.02812 5.5
      vertex 2.51225 -1.11853 5.5
    endloop
  endfacet
  facet normal 0 0 1
    outer loop
      vertex 5.5 -4.02812 5.5
      vertex 2.2248 -1.61641 5.5
      vertex 4.56347 -5.06825 5.5
    endloop
  endfacet
  facet normal -0 0 1
    outer loop
      vertex 1.84011 -2.04365 5.5
      vertex 4.56347 -5.06825 5.5
      vertex 2.2248 -1.61641 5.5
    endloop
  endfacet
  facet normal 0 0 1
    outer loop
      vertex 4.56347 -5.06825 5.5
      vertex 1.84011 -2.04365 5.5
      vertex 3.96921 -5.5 5.5
    endloop
  endfacet
  facet normal -0 0 1
    outer loop
      vertex 1.375 -2.38157 5.5
      vertex 3.96921 -5.5 5.5
      vertex 1.84011 -2.04365 5.5
    endloop
  endfacet
  facet normal -0 0 1
    outer loop
      vertex 0.849796 -2.6154 5.5
      vertex 3.96921 -5.5 5.5
      vertex 1.375 -2.38157 5.5
    endloop
  endfacet
  facet normal -0 0 1
    outer loop
      vertex 0.287453 -2.73493 5.5
      vertex 3.96921 -5.5 5.5
      vertex 0.849796 -2.6154 5.5
    endloop
  endfacet
  facet normal -0 0 1
    outer loop
      vertex -0.287453 -2.73493 5.5
      vertex 3.96921 -5.5 5.5
      vertex 0.287453 -2.73493 5.5
    endloop
  endfacet
  facet normal 0 0 1
    outer loop
      vertex -3.96921 -5.5 5.5
      vertex -0.287453 -2.73493 5.5
      vertex -0.849796 -2.6154 5.5
    endloop
  endfacet
  facet normal 0 0 1
    outer loop
      vertex -3.96921 -5.5 5.5
      vertex -0.849796 -2.6154 5.5
      vertex -1.375 -2.38157 5.5
    endloop
  endfacet
  facet normal 0 0 1
    outer loop
      vertex -2.51225 1.11853 5.5
      vertex -5.5 4.02812 5.5
      vertex -2.68991 0.571757 5.5
    endloop
  endfacet
  facet normal 0 0 1
    outer loop
      vertex -0.287453 -2.73493 5.5
      vertex -3.96921 -5.5 5.5
      vertex 3.96921 -5.5 5.5
    endloop
  endfacet
  facet normal 0 0 1
    outer loop
      vertex -1.84011 -2.04365 5.5
      vertex -3.96921 -5.5 5.5
      vertex -1.375 -2.38157 5.5
    endloop
  endfacet
  facet normal 0 0 1
    outer loop
      vertex -4.56347 -5.06825 5.5
      vertex -1.84011 -2.04365 5.5
      vertex -2.2248 -1.61641 5.5
    endloop
  endfacet
  facet normal 0 0 1
    outer loop
      vertex -5.5 -4.02812 5.5
      vertex -2.2248 -1.61641 5.5
      vertex -2.51225 -1.11853 5.5
    endloop
  endfacet
  facet normal 0 0 1
    outer loop
      vertex -5.5 -4.02812 5.5
      vertex -2.51225 -1.11853 5.5
      vertex -2.68991 -0.571757 5.5
    endloop
  endfacet
  facet normal 0 0 1
    outer loop
      vertex -2.68991 0.571757 5.5
      vertex -5.5 4.02812 5.5
      vertex -2.75 0 5.5
    endloop
  endfacet
  facet normal 0 0 1
    outer loop
      vertex -5.5 -4.02812 5.5
      vertex -2.75 0 5.5
      vertex -5.5 4.02812 5.5
    endloop
  endfacet
  facet normal 0 0 1
    outer loop
      vertex -2.75 0 5.5
      vertex -5.5 -4.02812 5.5
      vertex -2.68991 -0.571757 5.5
    endloop
  endfacet
  facet normal 0 0 1
    outer loop
      vertex -2.2248 -1.61641 5.5
      vertex -5.5 -4.02812 5.5
      vertex -4.56347 -5.06825 5.5
    endloop
  endfacet
  facet normal 0 0 1
    outer loop
      vertex -1.84011 -2.04365 5.5
      vertex -4.56347 -5.06825 5.5
      vertex -3.96921 -5.5 5.5
    endloop
  endfacet
  facet normal 0.406737 -0.913545 0
    outer loop
      vertex -1.375 2.38157 -3.3
      vertex -0.849796 2.6154 5.5
      vertex -1.375 2.38157 5.5
    endloop
  endfacet
  facet normal 0.406737 -0.913545 0
    outer loop
      vertex -0.849796 2.6154 5.5
      vertex -1.375 2.38157 -3.3
      vertex -0.849796 2.6154 -3.3
    endloop
  endfacet
  facet normal -0.994522 0.104529 0
    outer loop
      vertex 2.68991 -0.571757 -3.3
      vertex 2.75 0 5.5
      vertex 2.75 0 -3.3
    endloop
  endfacet
  facet normal -0.994522 0.104529 0
    outer loop
      vertex 2.75 0 5.5
      vertex 2.68991 -0.571757 -3.3
      vertex 2.68991 -0.571757 5.5
    endloop
  endfacet
  facet normal -0.866025 0.5 0
    outer loop
      vertex 2.2248 -1.61641 -3.3
      vertex 2.51225 -1.11853 5.5
      vertex 2.51225 -1.11853 -3.3
    endloop
  endfacet
  facet normal -0.866025 0.5 0
    outer loop
      vertex 2.51225 -1.11853 5.5
      vertex 2.2248 -1.61641 -3.3
      vertex 2.2248 -1.61641 5.5
    endloop
  endfacet
  facet normal 0.866025 0.5 0
    outer loop
      vertex -2.2248 -1.61641 5.5
      vertex -2.51225 -1.11853 -3.3
      vertex -2.51225 -1.11853 5.5
    endloop
  endfacet
  facet normal 0.866025 0.5 0
    outer loop
      vertex -2.51225 -1.11853 -3.3
      vertex -2.2248 -1.61641 5.5
      vertex -2.2248 -1.61641 -3.3
    endloop
  endfacet
  facet normal 0.743145 0.669131 0
    outer loop
      vertex -1.84011 -2.04365 5.5
      vertex -2.2248 -1.61641 -3.3
      vertex -2.2248 -1.61641 5.5
    endloop
  endfacet
  facet normal 0.743145 0.669131 0
    outer loop
      vertex -2.2248 -1.61641 -3.3
      vertex -1.84011 -2.04365 5.5
      vertex -1.84011 -2.04365 -3.3
    endloop
  endfacet
  facet normal -0.587786 0.809017 0
    outer loop
      vertex 1.84011 -2.04365 -3.3
      vertex 1.375 -2.38157 5.5
      vertex 1.84011 -2.04365 5.5
    endloop
  endfacet
  facet normal -0.587786 0.809017 0
    outer loop
      vertex 1.375 -2.38157 5.5
      vertex 1.84011 -2.04365 -3.3
      vertex 1.375 -2.38157 -3.3
    endloop
  endfacet
  facet normal 0.207912 0.978148 -0
    outer loop
      vertex -0.287453 -2.73493 -3.3
      vertex -0.849796 -2.6154 5.5
      vertex -0.287453 -2.73493 5.5
    endloop
  endfacet
  facet normal 0.207912 0.978148 0
    outer loop
      vertex -0.849796 -2.6154 5.5
      vertex -0.287453 -2.73493 -3.3
      vertex -0.849796 -2.6154 -3.3
    endloop
  endfacet
  facet normal 0.951056 0.309018 0
    outer loop
      vertex -2.51225 -1.11853 5.5
      vertex -2.68991 -0.571757 -3.3
      vertex -2.68991 -0.571757 5.5
    endloop
  endfacet
  facet normal 0.951056 0.309018 0
    outer loop
      vertex -2.68991 -0.571757 -3.3
      vertex -2.51225 -1.11853 5.5
      vertex -2.51225 -1.11853 -3.3
    endloop
  endfacet
  facet normal 0.994522 0.104529 0
    outer loop
      vertex -2.68991 -0.571757 5.5
      vertex -2.75 0 -3.3
      vertex -2.75 0 5.5
    endloop
  endfacet
  facet normal 0.994522 0.104529 0
    outer loop
      vertex -2.75 0 -3.3
      vertex -2.68991 -0.571757 5.5
      vertex -2.68991 -0.571757 -3.3
    endloop
  endfacet
  facet normal -0.406736 0.913546 0
    outer loop
      vertex 1.375 -2.38157 -3.3
      vertex 0.849796 -2.6154 5.5
      vertex 1.375 -2.38157 5.5
    endloop
  endfacet
  facet normal -0.406736 0.913546 0
    outer loop
      vertex 0.849796 -2.6154 5.5
      vertex 1.375 -2.38157 -3.3
      vertex 0.849796 -2.6154 -3.3
    endloop
  endfacet
  facet normal -0.207912 0.978148 0
    outer loop
      vertex 0.849796 -2.6154 -3.3
      vertex 0.287453 -2.73493 5.5
      vertex 0.849796 -2.6154 5.5
    endloop
  endfacet
  facet normal -0.207912 0.978148 0
    outer loop
      vertex 0.287453 -2.73493 5.5
      vertex 0.849796 -2.6154 -3.3
      vertex 0.287453 -2.73493 -3.3
    endloop
  endfacet
  facet normal -0.743145 0.669131 0
    outer loop
      vertex 1.84011 -2.04365 -3.3
      vertex 2.2248 -1.61641 5.5
      vertex 2.2248 -1.61641 -3.3
    endloop
  endfacet
  facet normal -0.743145 0.669131 0
    outer loop
      vertex 2.2248 -1.61641 5.5
      vertex 1.84011 -2.04365 -3.3
      vertex 1.84011 -2.04365 5.5
    endloop
  endfacet
  facet normal 0.406736 0.913546 -0
    outer loop
      vertex -0.849796 -2.6154 -3.3
      vertex -1.375 -2.38157 5.5
      vertex -0.849796 -2.6154 5.5
    endloop
  endfacet
  facet normal 0.406736 0.913546 0
    outer loop
      vertex -1.375 -2.38157 5.5
      vertex -0.849796 -2.6154 -3.3
      vertex -1.375 -2.38157 -3.3
    endloop
  endfacet
  facet normal 0.587786 0.809017 -0
    outer loop
      vertex -1.375 -2.38157 -3.3
      vertex -1.84011 -2.04365 5.5
      vertex -1.375 -2.38157 5.5
    endloop
  endfacet
  facet normal 0.587786 0.809017 0
    outer loop
      vertex -1.84011 -2.04365 5.5
      vertex -1.375 -2.38157 -3.3
      vertex -1.84011 -2.04365 -3.3
    endloop
  endfacet
  facet normal -0.994522 -0.104529 0
    outer loop
      vertex 3.3 0 -5.5
      vertex 3.22789 0.686108 -3.3
      vertex 3.22789 0.686108 -5.5
    endloop
  endfacet
  facet normal -0.994522 -0.104529 0
    outer loop
      vertex 3.22789 0.686108 -3.3
      vertex 3.3 0 -5.5
      vertex 3.3 0 -3.3
    endloop
  endfacet
  facet normal 0.994522 -0.104529 0
    outer loop
      vertex -3.3 0 -3.3
      vertex -3.22789 0.686108 -5.5
      vertex -3.22789 0.686108 -3.3
    endloop
  endfacet
  facet normal 0.994522 -0.104529 0
    outer loop
      vertex -3.22789 0.686108 -5.5
      vertex -3.3 0 -3.3
      vertex -3.3 0 -5.5
    endloop
  endfacet
  facet normal 0 -1 0
    outer loop
      vertex -0.344944 3.28192 -5.5
      vertex 0.344944 3.28192 -3.3
      vertex -0.344944 3.28192 -3.3
    endloop
  endfacet
  facet normal 0 -1 -0
    outer loop
      vertex 0.344944 3.28192 -3.3
      vertex -0.344944 3.28192 -5.5
      vertex 0.344944 3.28192 -5.5
    endloop
  endfacet
  facet normal 0 1 -0
    outer loop
      vertex 0.344944 -3.28192 -5.5
      vertex -0.344944 -3.28192 -3.3
      vertex 0.344944 -3.28192 -3.3
    endloop
  endfacet
  facet normal 0 1 0
    outer loop
      vertex -0.344944 -3.28192 -3.3
      vertex 0.344944 -3.28192 -5.5
      vertex -0.344944 -3.28192 -5.5
    endloop
  endfacet
  facet normal -0.587786 -0.809016 0
    outer loop
      vertex 1.65 2.85788 -5.5
      vertex 2.20813 2.45238 -3.3
      vertex 1.65 2.85788 -3.3
    endloop
  endfacet
  facet normal -0.587786 -0.809016 -0
    outer loop
      vertex 2.20813 2.45238 -3.3
      vertex 1.65 2.85788 -5.5
      vertex 2.20813 2.45238 -5.5
    endloop
  endfacet
  facet normal -0.406737 -0.913545 0
    outer loop
      vertex 1.01976 3.13849 -5.5
      vertex 1.65 2.85788 -3.3
      vertex 1.01976 3.13849 -3.3
    endloop
  endfacet
  facet normal -0.406737 -0.913545 -0
    outer loop
      vertex 1.65 2.85788 -3.3
      vertex 1.01976 3.13849 -5.5
      vertex 1.65 2.85788 -5.5
    endloop
  endfacet
  facet normal 0.743144 -0.669131 0
    outer loop
      vertex -2.66976 1.93969 -3.3
      vertex -2.20813 2.45238 -5.5
      vertex -2.20813 2.45238 -3.3
    endloop
  endfacet
  facet normal 0.743144 -0.669131 0
    outer loop
      vertex -2.20813 2.45238 -5.5
      vertex -2.66976 1.93969 -3.3
      vertex -2.66976 1.93969 -5.5
    endloop
  endfacet
  facet normal 0 0 -1
    outer loop
      vertex 2.75 0 -3.3
      vertex 3.3 0 -3.3
      vertex 3.22789 -0.686108 -3.3
    endloop
  endfacet
  facet normal 0 0 -1
    outer loop
      vertex 2.68991 -0.571757 -3.3
      vertex 3.22789 -0.686108 -3.3
      vertex 3.0147 -1.34223 -3.3
    endloop
  endfacet
  facet normal 0 0 -1
    outer loop
      vertex 3.3 0 -3.3
      vertex 2.75 0 -3.3
      vertex 3.22789 0.686108 -3.3
    endloop
  endfacet
  facet normal 0 0 -1
    outer loop
      vertex 2.68991 0.571757 -3.3
      vertex 3.22789 0.686108 -3.3
      vertex 2.75 0 -3.3
    endloop
  endfacet
  facet normal 0 0 -1
    outer loop
      vertex 3.22789 -0.686108 -3.3
      vertex 2.68991 -0.571757 -3.3
      vertex 2.75 0 -3.3
    endloop
  endfacet
  facet normal 0 0 -1
    outer loop
      vertex 2.51225 -1.11853 -3.3
      vertex 3.0147 -1.34223 -3.3
      vertex 2.66976 -1.93969 -3.3
    endloop
  endfacet
  facet normal 0 0 -1
    outer loop
      vertex 3.0147 -1.34223 -3.3
      vertex 2.51225 -1.11853 -3.3
      vertex 2.68991 -0.571757 -3.3
    endloop
  endfacet
  facet normal 0 0 -1
    outer loop
      vertex 2.66976 -1.93969 -3.3
      vertex 2.2248 -1.61641 -3.3
      vertex 2.51225 -1.11853 -3.3
    endloop
  endfacet
  facet normal 0 0 -1
    outer loop
      vertex 2.20813 -2.45238 -3.3
      vertex 2.2248 -1.61641 -3.3
      vertex 2.66976 -1.93969 -3.3
    endloop
  endfacet
  facet normal 0 0 -1
    outer loop
      vertex 2.20813 -2.45238 -3.3
      vertex 1.84011 -2.04365 -3.3
      vertex 2.2248 -1.61641 -3.3
    endloop
  endfacet
  facet normal 0 0 -1
    outer loop
      vertex 1.65 -2.85788 -3.3
      vertex 1.84011 -2.04365 -3.3
      vertex 2.20813 -2.45238 -3.3
    endloop
  endfacet
  facet normal 0 0 -1
    outer loop
      vertex 1.65 -2.85788 -3.3
      vertex 1.375 -2.38157 -3.3
      vertex 1.84011 -2.04365 -3.3
    endloop
  endfacet
  facet normal 0 0 -1
    outer loop
      vertex 1.01976 -3.13849 -3.3
      vertex 1.375 -2.38157 -3.3
      vertex 1.65 -2.85788 -3.3
    endloop
  endfacet
  facet normal 0 0 -1
    outer loop
      vertex 1.01976 -3.13849 -3.3
      vertex 0.849796 -2.6154 -3.3
      vertex 1.375 -2.38157 -3.3
    endloop
  endfacet
  facet normal 0 0 -1
    outer loop
      vertex 0.344944 -3.28192 -3.3
      vertex 0.849796 -2.6154 -3.3
      vertex 1.01976 -3.13849 -3.3
    endloop
  endfacet
  facet normal 0 0 -1
    outer loop
      vertex 0.344944 -3.28192 -3.3
      vertex 0.287453 -2.73493 -3.3
      vertex 0.849796 -2.6154 -3.3
    endloop
  endfacet
  facet normal 0 0 -1
    outer loop
      vertex 0.344944 -3.28192 -3.3
      vertex -0.287453 -2.73493 -3.3
      vertex 0.287453 -2.73493 -3.3
    endloop
  endfacet
  facet normal 0 0 -1
    outer loop
      vertex -0.344944 -3.28192 -3.3
      vertex -0.287453 -2.73493 -3.3
      vertex 0.344944 -3.28192 -3.3
    endloop
  endfacet
  facet normal 0 0 -1
    outer loop
      vertex -0.344944 -3.28192 -3.3
      vertex -0.849796 -2.6154 -3.3
      vertex -0.287453 -2.73493 -3.3
    endloop
  endfacet
  facet normal 0 0 -1
    outer loop
      vertex -1.01976 -3.13849 -3.3
      vertex -0.849796 -2.6154 -3.3
      vertex -0.344944 -3.28192 -3.3
    endloop
  endfacet
  facet normal 0 0 -1
    outer loop
      vertex -1.01976 -3.13849 -3.3
      vertex -1.375 -2.38157 -3.3
      vertex -0.849796 -2.6154 -3.3
    endloop
  endfacet
  facet normal 0 0 -1
    outer loop
      vertex -1.65 -2.85788 -3.3
      vertex -1.375 -2.38157 -3.3
      vertex -1.01976 -3.13849 -3.3
    endloop
  endfacet
  facet normal 0 0 -1
    outer loop
      vertex -1.65 -2.85788 -3.3
      vertex -1.84011 -2.04365 -3.3
      vertex -1.375 -2.38157 -3.3
    endloop
  endfacet
  facet normal 0 0 -1
    outer loop
      vertex -2.20813 -2.45238 -3.3
      vertex -1.84011 -2.04365 -3.3
      vertex -1.65 -2.85788 -3.3
    endloop
  endfacet
  facet normal 0 0 -1
    outer loop
      vertex -2.20813 -2.45238 -3.3
      vertex -2.2248 -1.61641 -3.3
      vertex -1.84011 -2.04365 -3.3
    endloop
  endfacet
  facet normal 0 0 -1
    outer loop
      vertex -2.66976 -1.93969 -3.3
      vertex -2.2248 -1.61641 -3.3
      vertex -2.20813 -2.45238 -3.3
    endloop
  endfacet
  facet normal -0 0 -1
    outer loop
      vertex -2.2248 -1.61641 -3.3
      vertex -2.66976 -1.93969 -3.3
      vertex -2.51225 -1.11853 -3.3
    endloop
  endfacet
  facet normal 0 0 -1
    outer loop
      vertex -3.0147 -1.34223 -3.3
      vertex -2.51225 -1.11853 -3.3
      vertex -2.66976 -1.93969 -3.3
    endloop
  endfacet
  facet normal -0 0 -1
    outer loop
      vertex -2.51225 -1.11853 -3.3
      vertex -3.0147 -1.34223 -3.3
      vertex -2.68991 -0.571757 -3.3
    endloop
  endfacet
  facet normal 0 0 -1
    outer loop
      vertex -3.22789 -0.686108 -3.3
      vertex -2.68991 -0.571757 -3.3
      vertex -3.0147 -1.34223 -3.3
    endloop
  endfacet
  facet normal -0 0 -1
    outer loop
      vertex 3.22789 0.686108 -3.3
      vertex 2.68991 0.571757 -3.3
      vertex 3.0147 1.34223 -3.3
    endloop
  endfacet
  facet normal 0 0 -1
    outer loop
      vertex 2.51225 1.11853 -3.3
      vertex 3.0147 1.34223 -3.3
      vertex 2.68991 0.571757 -3.3
    endloop
  endfacet
  facet normal -0 0 -1
    outer loop
      vertex 3.0147 1.34223 -3.3
      vertex 2.51225 1.11853 -3.3
      vertex 2.66976 1.93969 -3.3
    endloop
  endfacet
  facet normal 0 0 -1
    outer loop
      vertex 2.2248 1.61641 -3.3
      vertex 2.66976 1.93969 -3.3
      vertex 2.51225 1.11853 -3.3
    endloop
  endfacet
  facet normal 0 0 -1
    outer loop
      vertex 2.2248 1.61641 -3.3
      vertex 2.20813 2.45238 -3.3
      vertex 2.66976 1.93969 -3.3
    endloop
  endfacet
  facet normal 0 0 -1
    outer loop
      vertex 1.84011 2.04365 -3.3
      vertex 2.20813 2.45238 -3.3
      vertex 2.2248 1.61641 -3.3
    endloop
  endfacet
  facet normal 0 0 -1
    outer loop
      vertex 1.84011 2.04365 -3.3
      vertex 1.65 2.85788 -3.3
      vertex 2.20813 2.45238 -3.3
    endloop
  endfacet
  facet normal 0 0 -1
    outer loop
      vertex 1.375 2.38157 -3.3
      vertex 1.65 2.85788 -3.3
      vertex 1.84011 2.04365 -3.3
    endloop
  endfacet
  facet normal 0 0 -1
    outer loop
      vertex 1.375 2.38157 -3.3
      vertex 1.01976 3.13849 -3.3
      vertex 1.65 2.85788 -3.3
    endloop
  endfacet
  facet normal 0 0 -1
    outer loop
      vertex 0.849796 2.6154 -3.3
      vertex 1.01976 3.13849 -3.3
      vertex 1.375 2.38157 -3.3
    endloop
  endfacet
  facet normal 0 0 -1
    outer loop
      vertex 0.849796 2.6154 -3.3
      vertex 0.344944 3.28192 -3.3
      vertex 1.01976 3.13849 -3.3
    endloop
  endfacet
  facet normal 0 0 -1
    outer loop
      vertex 0.287453 2.73493 -3.3
      vertex 0.344944 3.28192 -3.3
      vertex 0.849796 2.6154 -3.3
    endloop
  endfacet
  facet normal 0 0 -1
    outer loop
      vertex -0.287453 2.73493 -3.3
      vertex 0.344944 3.28192 -3.3
      vertex 0.287453 2.73493 -3.3
    endloop
  endfacet
  facet normal 0 0 -1
    outer loop
      vertex -0.287453 2.73493 -3.3
      vertex -0.344944 3.28192 -3.3
      vertex 0.344944 3.28192 -3.3
    endloop
  endfacet
  facet normal 0 0 -1
    outer loop
      vertex -0.849796 2.6154 -3.3
      vertex -0.344944 3.28192 -3.3
      vertex -0.287453 2.73493 -3.3
    endloop
  endfacet
  facet normal 0 0 -1
    outer loop
      vertex -0.849796 2.6154 -3.3
      vertex -1.01976 3.13849 -3.3
      vertex -0.344944 3.28192 -3.3
    endloop
  endfacet
  facet normal 0 0 -1
    outer loop
      vertex -1.375 2.38157 -3.3
      vertex -1.01976 3.13849 -3.3
      vertex -0.849796 2.6154 -3.3
    endloop
  endfacet
  facet normal 0 0 -1
    outer loop
      vertex -1.375 2.38157 -3.3
      vertex -1.65 2.85788 -3.3
      vertex -1.01976 3.13849 -3.3
    endloop
  endfacet
  facet normal 0 0 -1
    outer loop
      vertex -1.84011 2.04365 -3.3
      vertex -1.65 2.85788 -3.3
      vertex -1.375 2.38157 -3.3
    endloop
  endfacet
  facet normal 0 0 -1
    outer loop
      vertex -1.84011 2.04365 -3.3
      vertex -2.20813 2.45238 -3.3
      vertex -1.65 2.85788 -3.3
    endloop
  endfacet
  facet normal 0 0 -1
    outer loop
      vertex -2.2248 1.61641 -3.3
      vertex -2.20813 2.45238 -3.3
      vertex -1.84011 2.04365 -3.3
    endloop
  endfacet
  facet normal 0 0 -1
    outer loop
      vertex -2.66976 1.93969 -3.3
      vertex -2.2248 1.61641 -3.3
      vertex -2.51225 1.11853 -3.3
    endloop
  endfacet
  facet normal 0 0 -1
    outer loop
      vertex -2.2248 1.61641 -3.3
      vertex -2.66976 1.93969 -3.3
      vertex -2.20813 2.45238 -3.3
    endloop
  endfacet
  facet normal 0 0 -1
    outer loop
      vertex -3.0147 1.34223 -3.3
      vertex -2.51225 1.11853 -3.3
      vertex -2.68991 0.571757 -3.3
    endloop
  endfacet
  facet normal 0 0 -1
    outer loop
      vertex -3.22789 0.686108 -3.3
      vertex -2.68991 0.571757 -3.3
      vertex -2.75 0 -3.3
    endloop
  endfacet
  facet normal -0 0 -1
    outer loop
      vertex -2.68991 -0.571757 -3.3
      vertex -3.22789 -0.686108 -3.3
      vertex -2.75 0 -3.3
    endloop
  endfacet
  facet normal 0 0 -1
    outer loop
      vertex -2.51225 1.11853 -3.3
      vertex -3.0147 1.34223 -3.3
      vertex -2.66976 1.93969 -3.3
    endloop
  endfacet
  facet normal 0 0 -1
    outer loop
      vertex -3.3 0 -3.3
      vertex -2.75 0 -3.3
      vertex -3.22789 -0.686108 -3.3
    endloop
  endfacet
  facet normal 0 0 -1
    outer loop
      vertex -2.68991 0.571757 -3.3
      vertex -3.22789 0.686108 -3.3
      vertex -3.0147 1.34223 -3.3
    endloop
  endfacet
  facet normal 0 0 -1
    outer loop
      vertex -2.75 0 -3.3
      vertex -3.3 0 -3.3
      vertex -3.22789 0.686108 -3.3
    endloop
  endfacet
  facet normal 0.406737 -0.913545 0
    outer loop
      vertex -1.65 2.85788 -5.5
      vertex -1.01976 3.13849 -3.3
      vertex -1.65 2.85788 -3.3
    endloop
  endfacet
  facet normal 0.406737 -0.913545 0
    outer loop
      vertex -1.01976 3.13849 -3.3
      vertex -1.65 2.85788 -5.5
      vertex -1.01976 3.13849 -5.5
    endloop
  endfacet
  facet normal -0.951056 0.309017 0
    outer loop
      vertex 3.0147 -1.34223 -5.5
      vertex 3.22789 -0.686108 -3.3
      vertex 3.22789 -0.686108 -5.5
    endloop
  endfacet
  facet normal -0.951056 0.309017 0
    outer loop
      vertex 3.22789 -0.686108 -3.3
      vertex 3.0147 -1.34223 -5.5
      vertex 3.0147 -1.34223 -3.3
    endloop
  endfacet
  facet normal -0.866026 -0.5 0
    outer loop
      vertex 3.0147 1.34223 -5.5
      vertex 2.66976 1.93969 -3.3
      vertex 2.66976 1.93969 -5.5
    endloop
  endfacet
  facet normal -0.866026 -0.5 0
    outer loop
      vertex 2.66976 1.93969 -3.3
      vertex 3.0147 1.34223 -5.5
      vertex 3.0147 1.34223 -3.3
    endloop
  endfacet
  facet normal -0.951056 -0.309017 0
    outer loop
      vertex 3.22789 0.686108 -5.5
      vertex 3.0147 1.34223 -3.3
      vertex 3.0147 1.34223 -5.5
    endloop
  endfacet
  facet normal -0.951056 -0.309017 0
    outer loop
      vertex 3.0147 1.34223 -3.3
      vertex 3.22789 0.686108 -5.5
      vertex 3.22789 0.686108 -3.3
    endloop
  endfacet
  facet normal -0.743144 -0.669131 0
    outer loop
      vertex 2.66976 1.93969 -5.5
      vertex 2.20813 2.45238 -3.3
      vertex 2.20813 2.45238 -5.5
    endloop
  endfacet
  facet normal -0.743144 -0.669131 0
    outer loop
      vertex 2.20813 2.45238 -3.3
      vertex 2.66976 1.93969 -5.5
      vertex 2.66976 1.93969 -3.3
    endloop
  endfacet
  facet normal -0.207911 -0.978148 0
    outer loop
      vertex 0.344944 3.28192 -5.5
      vertex 1.01976 3.13849 -3.3
      vertex 0.344944 3.28192 -3.3
    endloop
  endfacet
  facet normal -0.207911 -0.978148 -0
    outer loop
      vertex 1.01976 3.13849 -3.3
      vertex 0.344944 3.28192 -5.5
      vertex 1.01976 3.13849 -5.5
    endloop
  endfacet
  facet normal 0.866026 -0.5 0
    outer loop
      vertex -3.0147 1.34223 -3.3
      vertex -2.66976 1.93969 -5.5
      vertex -2.66976 1.93969 -3.3
    endloop
  endfacet
  facet normal 0.866026 -0.5 0
    outer loop
      vertex -2.66976 1.93969 -5.5
      vertex -3.0147 1.34223 -3.3
      vertex -3.0147 1.34223 -5.5
    endloop
  endfacet
  facet normal 0.951056 -0.309017 0
    outer loop
      vertex -3.22789 0.686108 -3.3
      vertex -3.0147 1.34223 -5.5
      vertex -3.0147 1.34223 -3.3
    endloop
  endfacet
  facet normal 0.951056 -0.309017 0
    outer loop
      vertex -3.0147 1.34223 -5.5
      vertex -3.22789 0.686108 -3.3
      vertex -3.22789 0.686108 -5.5
    endloop
  endfacet
  facet normal 0.587785 -0.809017 0
    outer loop
      vertex -2.20813 2.45238 -5.5
      vertex -1.65 2.85788 -3.3
      vertex -2.20813 2.45238 -3.3
    endloop
  endfacet
  facet normal 0.587785 -0.809017 0
    outer loop
      vertex -1.65 2.85788 -3.3
      vertex -2.20813 2.45238 -5.5
      vertex -1.65 2.85788 -5.5
    endloop
  endfacet
  facet normal 0.207911 -0.978148 0
    outer loop
      vertex -1.01976 3.13849 -5.5
      vertex -0.344944 3.28192 -3.3
      vertex -1.01976 3.13849 -3.3
    endloop
  endfacet
  facet normal 0.207911 -0.978148 0
    outer loop
      vertex -0.344944 3.28192 -3.3
      vertex -1.01976 3.13849 -5.5
      vertex -0.344944 3.28192 -5.5
    endloop
  endfacet
  facet normal -0.994522 0.104529 0
    outer loop
      vertex 3.22789 -0.686108 -5.5
      vertex 3.3 0 -3.3
      vertex 3.3 0 -5.5
    endloop
  endfacet
  facet normal -0.994522 0.104529 0
    outer loop
      vertex 3.3 0 -3.3
      vertex 3.22789 -0.686108 -5.5
      vertex 3.22789 -0.686108 -3.3
    endloop
  endfacet
  facet normal -0.207911 0.978148 0
    outer loop
      vertex 1.01976 -3.13849 -5.5
      vertex 0.344944 -3.28192 -3.3
      vertex 1.01976 -3.13849 -3.3
    endloop
  endfacet
  facet normal -0.207911 0.978148 0
    outer loop
      vertex 0.344944 -3.28192 -3.3
      vertex 1.01976 -3.13849 -5.5
      vertex 0.344944 -3.28192 -5.5
    endloop
  endfacet
  facet normal -0.866026 0.5 0
    outer loop
      vertex 2.66976 -1.93969 -5.5
      vertex 3.0147 -1.34223 -3.3
      vertex 3.0147 -1.34223 -5.5
    endloop
  endfacet
  facet normal -0.866026 0.5 0
    outer loop
      vertex 3.0147 -1.34223 -3.3
      vertex 2.66976 -1.93969 -5.5
      vertex 2.66976 -1.93969 -3.3
    endloop
  endfacet
  facet normal -0.587786 0.809016 0
    outer loop
      vertex 2.20813 -2.45238 -5.5
      vertex 1.65 -2.85788 -3.3
      vertex 2.20813 -2.45238 -3.3
    endloop
  endfacet
  facet normal -0.587786 0.809016 0
    outer loop
      vertex 1.65 -2.85788 -3.3
      vertex 2.20813 -2.45238 -5.5
      vertex 1.65 -2.85788 -5.5
    endloop
  endfacet
  facet normal -0.406737 0.913545 0
    outer loop
      vertex 1.65 -2.85788 -5.5
      vertex 1.01976 -3.13849 -3.3
      vertex 1.65 -2.85788 -3.3
    endloop
  endfacet
  facet normal -0.406737 0.913545 0
    outer loop
      vertex 1.01976 -3.13849 -3.3
      vertex 1.65 -2.85788 -5.5
      vertex 1.01976 -3.13849 -5.5
    endloop
  endfacet
  facet normal 0.207911 0.978148 -0
    outer loop
      vertex -0.344944 -3.28192 -5.5
      vertex -1.01976 -3.13849 -3.3
      vertex -0.344944 -3.28192 -3.3
    endloop
  endfacet
  facet normal 0.207911 0.978148 0
    outer loop
      vertex -1.01976 -3.13849 -3.3
      vertex -0.344944 -3.28192 -5.5
      vertex -1.01976 -3.13849 -5.5
    endloop
  endfacet
  facet normal 0.743144 0.669131 0
    outer loop
      vertex -2.20813 -2.45238 -3.3
      vertex -2.66976 -1.93969 -5.5
      vertex -2.66976 -1.93969 -3.3
    endloop
  endfacet
  facet normal 0.743144 0.669131 0
    outer loop
      vertex -2.66976 -1.93969 -5.5
      vertex -2.20813 -2.45238 -3.3
      vertex -2.20813 -2.45238 -5.5
    endloop
  endfacet
  facet normal 0.866026 0.5 0
    outer loop
      vertex -2.66976 -1.93969 -3.3
      vertex -3.0147 -1.34223 -5.5
      vertex -3.0147 -1.34223 -3.3
    endloop
  endfacet
  facet normal 0.866026 0.5 0
    outer loop
      vertex -3.0147 -1.34223 -5.5
      vertex -2.66976 -1.93969 -3.3
      vertex -2.66976 -1.93969 -5.5
    endloop
  endfacet
  facet normal 0.951056 0.309017 0
    outer loop
      vertex -3.0147 -1.34223 -3.3
      vertex -3.22789 -0.686108 -5.5
      vertex -3.22789 -0.686108 -3.3
    endloop
  endfacet
  facet normal 0.951056 0.309017 0
    outer loop
      vertex -3.22789 -0.686108 -5.5
      vertex -3.0147 -1.34223 -3.3
      vertex -3.0147 -1.34223 -5.5
    endloop
  endfacet
  facet normal 0.994522 0.104529 0
    outer loop
      vertex -3.22789 -0.686108 -3.3
      vertex -3.3 0 -5.5
      vertex -3.3 0 -3.3
    endloop
  endfacet
  facet normal 0.994522 0.104529 0
    outer loop
      vertex -3.3 0 -5.5
      vertex -3.22789 -0.686108 -3.3
      vertex -3.22789 -0.686108 -5.5
    endloop
  endfacet
  facet normal -0.743144 0.669131 0
    outer loop
      vertex 2.20813 -2.45238 -5.5
      vertex 2.66976 -1.93969 -3.3
      vertex 2.66976 -1.93969 -5.5
    endloop
  endfacet
  facet normal -0.743144 0.669131 0
    outer loop
      vertex 2.66976 -1.93969 -3.3
      vertex 2.20813 -2.45238 -5.5
      vertex 2.20813 -2.45238 -3.3
    endloop
  endfacet
  facet normal 0.406737 0.913545 -0
    outer loop
      vertex -1.01976 -3.13849 -5.5
      vertex -1.65 -2.85788 -3.3
      vertex -1.01976 -3.13849 -3.3
    endloop
  endfacet
  facet normal 0.406737 0.913545 0
    outer loop
      vertex -1.65 -2.85788 -3.3
      vertex -1.01976 -3.13849 -5.5
      vertex -1.65 -2.85788 -5.5
    endloop
  endfacet
  facet normal 0.587786 0.809016 -0
    outer loop
      vertex -1.65 -2.85788 -5.5
      vertex -2.20813 -2.45238 -3.3
      vertex -1.65 -2.85788 -3.3
    endloop
  endfacet
  facet normal 0.587786 0.809016 0
    outer loop
      vertex -2.20813 -2.45238 -3.3
      vertex -1.65 -2.85788 -5.5
      vertex -2.20813 -2.45238 -5.5
    endloop
  endfacet
  facet normal -1 0 0
    outer loop
      vertex -5.5 -4.02812 -5.5
      vertex -5.5 4.02812 5.5
      vertex -5.5 4.02812 -5.5
    endloop
  endfacet
  facet normal -1 -0 0
    outer loop
      vertex -5.5 4.02812 5.5
      vertex -5.5 -4.02812 -5.5
      vertex -5.5 -4.02812 5.5
    endloop
  endfacet
  facet normal 1 -0 0
    outer loop
      vertex 5.5 -4.02812 5.5
      vertex 5.5 4.02812 -5.5
      vertex 5.5 4.02812 5.5
    endloop
  endfacet
  facet normal 1 0 0
    outer loop
      vertex 5.5 4.02812 -5.5
      vertex 5.5 -4.02812 5.5
      vertex 5.5 -4.02812 -5.5
    endloop
  endfacet
  facet normal 0 1 -0
    outer loop
      vertex 3.96921 5.5 -5.5
      vertex -3.96921 5.5 5.5
      vertex 3.96921 5.5 5.5
    endloop
  endfacet
  facet normal 0 1 0
    outer loop
      vertex -3.96921 5.5 5.5
      vertex 3.96921 5.5 -5.5
      vertex -3.96921 5.5 -5.5
    endloop
  endfacet
  facet normal 0 0 -1
    outer loop
      vertex 2.66976 -1.93969 -5.5
      vertex 5.5 -4.02812 -5.5
      vertex 4.56347 -5.06825 -5.5
    endloop
  endfacet
  facet normal 0 0 -1
    outer loop
      vertex 5.5 -4.02812 -5.5
      vertex 3.3 0 -5.5
      vertex 5.5 4.02812 -5.5
    endloop
  endfacet
  facet normal 0 0 -1
    outer loop
      vertex 2.20813 -2.45238 -5.5
      vertex 4.56347 -5.06825 -5.5
      vertex 3.96921 -5.5 -5.5
    endloop
  endfacet
  facet normal 0 0 -1
    outer loop
      vertex 3.22789 0.686108 -5.5
      vertex 5.5 4.02812 -5.5
      vertex 3.3 0 -5.5
    endloop
  endfacet
  facet normal 0 0 -1
    outer loop
      vertex 3.0147 1.34223 -5.5
      vertex 5.5 4.02812 -5.5
      vertex 3.22789 0.686108 -5.5
    endloop
  endfacet
  facet normal 0 0 -1
    outer loop
      vertex 5.5 -4.02812 -5.5
      vertex 3.22789 -0.686108 -5.5
      vertex 3.3 0 -5.5
    endloop
  endfacet
  facet normal 0 0 -1
    outer loop
      vertex 5.5 -4.02812 -5.5
      vertex 3.0147 -1.34223 -5.5
      vertex 3.22789 -0.686108 -5.5
    endloop
  endfacet
  facet normal 0 0 -1
    outer loop
      vertex 5.5 -4.02812 -5.5
      vertex 2.66976 -1.93969 -5.5
      vertex 3.0147 -1.34223 -5.5
    endloop
  endfacet
  facet normal 0 0 -1
    outer loop
      vertex 4.56347 -5.06825 -5.5
      vertex 2.20813 -2.45238 -5.5
      vertex 2.66976 -1.93969 -5.5
    endloop
  endfacet
  facet normal 0 0 -1
    outer loop
      vertex 3.96921 -5.5 -5.5
      vertex 1.65 -2.85788 -5.5
      vertex 2.20813 -2.45238 -5.5
    endloop
  endfacet
  facet normal 0 0 -1
    outer loop
      vertex 3.96921 -5.5 -5.5
      vertex 1.01976 -3.13849 -5.5
      vertex 1.65 -2.85788 -5.5
    endloop
  endfacet
  facet normal 0 0 -1
    outer loop
      vertex 3.96921 -5.5 -5.5
      vertex 0.344944 -3.28192 -5.5
      vertex 1.01976 -3.13849 -5.5
    endloop
  endfacet
  facet normal 0 0 -1
    outer loop
      vertex 3.96921 -5.5 -5.5
      vertex -0.344944 -3.28192 -5.5
      vertex 0.344944 -3.28192 -5.5
    endloop
  endfacet
  facet normal 0 0 -1
    outer loop
      vertex -3.96921 -5.5 -5.5
      vertex -0.344944 -3.28192 -5.5
      vertex 3.96921 -5.5 -5.5
    endloop
  endfacet
  facet normal -0 0 -1
    outer loop
      vertex -0.344944 -3.28192 -5.5
      vertex -3.96921 -5.5 -5.5
      vertex -1.01976 -3.13849 -5.5
    endloop
  endfacet
  facet normal -0 0 -1
    outer loop
      vertex -2.66976 -1.93969 -5.5
      vertex -5.5 -4.02812 -5.5
      vertex -3.0147 -1.34223 -5.5
    endloop
  endfacet
  facet normal 0 0 -1
    outer loop
      vertex -5.5 -4.02812 -5.5
      vertex -2.66976 -1.93969 -5.5
      vertex -4.56347 -5.06825 -5.5
    endloop
  endfacet
  facet normal -0 0 -1
    outer loop
      vertex -2.20813 -2.45238 -5.5
      vertex -4.56347 -5.06825 -5.5
      vertex -2.66976 -1.93969 -5.5
    endloop
  endfacet
  facet normal 0 0 -1
    outer loop
      vertex -4.56347 -5.06825 -5.5
      vertex -2.20813 -2.45238 -5.5
      vertex -3.96921 -5.5 -5.5
    endloop
  endfacet
  facet normal -0 0 -1
    outer loop
      vertex -1.65 -2.85788 -5.5
      vertex -3.96921 -5.5 -5.5
      vertex -2.20813 -2.45238 -5.5
    endloop
  endfacet
  facet normal -0 0 -1
    outer loop
      vertex -1.01976 -3.13849 -5.5
      vertex -3.96921 -5.5 -5.5
      vertex -1.65 -2.85788 -5.5
    endloop
  endfacet
  facet normal 0 0 -1
    outer loop
      vertex 2.66976 1.93969 -5.5
      vertex 5.5 4.02812 -5.5
      vertex 3.0147 1.34223 -5.5
    endloop
  endfacet
  facet normal -0 0 -1
    outer loop
      vertex 5.5 4.02812 -5.5
      vertex 2.66976 1.93969 -5.5
      vertex 4.56347 5.06825 -5.5
    endloop
  endfacet
  facet normal 0 0 -1
    outer loop
      vertex 2.20813 2.45238 -5.5
      vertex 4.56347 5.06825 -5.5
      vertex 2.66976 1.93969 -5.5
    endloop
  endfacet
  facet normal -0 0 -1
    outer loop
      vertex 4.56347 5.06825 -5.5
      vertex 2.20813 2.45238 -5.5
      vertex 3.96921 5.5 -5.5
    endloop
  endfacet
  facet normal 0 0 -1
    outer loop
      vertex 1.65 2.85788 -5.5
      vertex 3.96921 5.5 -5.5
      vertex 2.20813 2.45238 -5.5
    endloop
  endfacet
  facet normal 0 0 -1
    outer loop
      vertex 1.01976 3.13849 -5.5
      vertex 3.96921 5.5 -5.5
      vertex 1.65 2.85788 -5.5
    endloop
  endfacet
  facet normal 0 0 -1
    outer loop
      vertex 0.344944 3.28192 -5.5
      vertex 3.96921 5.5 -5.5
      vertex 1.01976 3.13849 -5.5
    endloop
  endfacet
  facet normal 0 0 -1
    outer loop
      vertex -0.344944 3.28192 -5.5
      vertex 3.96921 5.5 -5.5
      vertex 0.344944 3.28192 -5.5
    endloop
  endfacet
  facet normal 0 0 -1
    outer loop
      vertex -3.96921 5.5 -5.5
      vertex -0.344944 3.28192 -5.5
      vertex -1.01976 3.13849 -5.5
    endloop
  endfacet
  facet normal 0 0 -1
    outer loop
      vertex -3.96921 5.5 -5.5
      vertex -1.01976 3.13849 -5.5
      vertex -1.65 2.85788 -5.5
    endloop
  endfacet
  facet normal -0 0 -1
    outer loop
      vertex -3.0147 -1.34223 -5.5
      vertex -5.5 -4.02812 -5.5
      vertex -3.22789 -0.686108 -5.5
    endloop
  endfacet
  facet normal 0 0 -1
    outer loop
      vertex -0.344944 3.28192 -5.5
      vertex -3.96921 5.5 -5.5
      vertex 3.96921 5.5 -5.5
    endloop
  endfacet
  facet normal 0 0 -1
    outer loop
      vertex -2.20813 2.45238 -5.5
      vertex -3.96921 5.5 -5.5
      vertex -1.65 2.85788 -5.5
    endloop
  endfacet
  facet normal 0 0 -1
    outer loop
      vertex -4.56347 5.06825 -5.5
      vertex -2.20813 2.45238 -5.5
      vertex -2.66976 1.93969 -5.5
    endloop
  endfacet
  facet normal 0 0 -1
    outer loop
      vertex -5.5 4.02812 -5.5
      vertex -2.66976 1.93969 -5.5
      vertex -3.0147 1.34223 -5.5
    endloop
  endfacet
  facet normal 0 0 -1
    outer loop
      vertex -5.5 4.02812 -5.5
      vertex -3.0147 1.34223 -5.5
      vertex -3.22789 0.686108 -5.5
    endloop
  endfacet
  facet normal -0 0 -1
    outer loop
      vertex -3.22789 -0.686108 -5.5
      vertex -5.5 -4.02812 -5.5
      vertex -3.3 0 -5.5
    endloop
  endfacet
  facet normal 0 0 -1
    outer loop
      vertex -5.5 4.02812 -5.5
      vertex -3.3 0 -5.5
      vertex -5.5 -4.02812 -5.5
    endloop
  endfacet
  facet normal 0 0 -1
    outer loop
      vertex -3.3 0 -5.5
      vertex -5.5 4.02812 -5.5
      vertex -3.22789 0.686108 -5.5
    endloop
  endfacet
  facet normal 0 0 -1
    outer loop
      vertex -2.66976 1.93969 -5.5
      vertex -5.5 4.02812 -5.5
      vertex -4.56347 5.06825 -5.5
    endloop
  endfacet
  facet normal 0 0 -1
    outer loop
      vertex -2.20813 2.45238 -5.5
      vertex -4.56347 5.06825 -5.5
      vertex -3.96921 5.5 -5.5
    endloop
  endfacet
  facet normal 0 -1 0
    outer loop
      vertex -3.96921 -5.5 -5.5
      vertex 3.96921 -5.5 5.5
      vertex -3.96921 -5.5 5.5
    endloop
  endfacet
  facet normal 0 -1 -0
    outer loop
      vertex 3.96921 -5.5 5.5
      vertex -3.96921 -5.5 -5.5
      vertex 3.96921 -5.5 -5.5
    endloop
  endfacet
  facet normal 0.587786 0.809017 -0
    outer loop
      vertex 4.56347 5.06825 -5.5
      vertex 3.96921 5.5 5.5
      vertex 4.56347 5.06825 5.5
    endloop
  endfacet
  facet normal 0.587786 0.809017 0
    outer loop
      vertex 3.96921 5.5 5.5
      vertex 4.56347 5.06825 -5.5
      vertex 3.96921 5.5 -5.5
    endloop
  endfacet
  facet normal -0.587786 0.809017 0
    outer loop
      vertex -3.96921 5.5 -5.5
      vertex -4.56347 5.06825 5.5
      vertex -3.96921 5.5 5.5
    endloop
  endfacet
  facet normal -0.587786 0.809017 0
    outer loop
      vertex -4.56347 5.06825 5.5
      vertex -3.96921 5.5 -5.5
      vertex -4.56347 5.06825 -5.5
    endloop
  endfacet
  facet normal 0.743145 0.669131 0
    outer loop
      vertex 5.5 4.02812 5.5
      vertex 4.56347 5.06825 -5.5
      vertex 4.56347 5.06825 5.5
    endloop
  endfacet
  facet normal 0.743145 0.669131 0
    outer loop
      vertex 4.56347 5.06825 -5.5
      vertex 5.5 4.02812 5.5
      vertex 5.5 4.02812 -5.5
    endloop
  endfacet
  facet normal -0.743145 0.669131 0
    outer loop
      vertex -5.5 4.02812 -5.5
      vertex -4.56347 5.06825 5.5
      vertex -4.56347 5.06825 -5.5
    endloop
  endfacet
  facet normal -0.743145 0.669131 0
    outer loop
      vertex -4.56347 5.06825 5.5
      vertex -5.5 4.02812 -5.5
      vertex -5.5 4.02812 5.5
    endloop
  endfacet
  facet normal 0.587786 -0.809017 0
    outer loop
      vertex 3.96921 -5.5 -5.5
      vertex 4.56347 -5.06825 5.5
      vertex 3.96921 -5.5 5.5
    endloop
  endfacet
  facet normal 0.587786 -0.809017 0
    outer loop
      vertex 4.56347 -5.06825 5.5
      vertex 3.96921 -5.5 -5.5
      vertex 4.56347 -5.06825 -5.5
    endloop
  endfacet
  facet normal 0.743145 -0.669131 0
    outer loop
      vertex 4.56347 -5.06825 5.5
      vertex 5.5 -4.02812 -5.5
      vertex 5.5 -4.02812 5.5
    endloop
  endfacet
  facet normal 0.743145 -0.669131 0
    outer loop
      vertex 5.5 -4.02812 -5.5
      vertex 4.56347 -5.06825 5.5
      vertex 4.56347 -5.06825 -5.5
    endloop
  endfacet
  facet normal -0.587786 -0.809017 0
    outer loop
      vertex -4.56347 -5.06825 -5.5
      vertex -3.96921 -5.5 5.5
      vertex -4.56347 -5.06825 5.5
    endloop
  endfacet
  facet normal -0.587786 -0.809017 -0
    outer loop
      vertex -3.96921 -5.5 5.5
      vertex -4.56347 -5.06825 -5.5
      vertex -3.96921 -5.5 -5.5
    endloop
  endfacet
  facet normal -0.743145 -0.669131 0
    outer loop
      vertex -4.56347 -5.06825 -5.5
      vertex -5.5 -4.02812 5.5
      vertex -5.5 -4.02812 -5.5
    endloop
  endfacet
  facet normal -0.743145 -0.669131 0
    outer loop
      vertex -5.5 -4.02812 5.5
      vertex -4.56347 -5.06825 -5.5
      vertex -4.56347 -5.06825 5.5
    endloop
  endfacet
endsolid OpenSCAD_Model
